# xmcd CD Database Entry
#
# Track frame offsets:
# 150
# 34298
# 68647
# 100535
# 136383
# 165812
# 206181
# 234568
# 255760
# 280132
#
# Disc length: 4040 seconds
#
# Revision: 1
# Processed by: cddbd v1.4b41PL2 Copyright (c) Steve Scherf et al.
# Submitted via: tcd 2.0b
#
DISCID=7d0fc60a
DTITLE=BAAZIGAR/AASHIQUI
DYEAR=1900
DGENRE=
TTITLE0=Ae Mere Hum Safar(BAAZIGAR)
TTITLE1=Bazigar O Bazigar(BAAZIGAR)
TTITLE2=Chupana Bhi Nahi(BAAZIGAR)
TTITLE3=Ye Kali Kali Aankhe(BAAZIGAR)
TTITLE4=Kitabe Bhut Si(BAAZIGAR)
TTITLE5=Samajh Kar Chand(BAZIGZAR)
TTITLE6=Sanso Ki Zaroorat(AASHIQUI)
TTITLE7=Mera Dil Tere Liye(AASHIQUI)
TTITLE8=Mai Duniya Bhula(AASHIQUI)
TTITLE9=Dil Ka Aalam(AASHIQUI)
EXTD=
EXTT0=
EXTT1=
EXTT2=
EXTT3=
EXTT4=
EXTT5=
EXTT6=
EXTT7=
EXTT8=
EXTT9=
PLAYORDER=
